<svg xmlns="http://www.w3.org/2000/svg" xmlns:xlink="http://www.w3.org/1999/xlink" width="512" height="512"><defs><g id="b"><path transform="rotate(18 3.157 -.5)" d="M0 0v1h.5z" id="a"/><use transform="scale(-1 1)" xlink:href="#a"/></g><g id="c"><use transform="rotate(72)" xlink:href="#b"/><use transform="rotate(144)" xlink:href="#b"/></g></defs><path style="fill:#2980b9;fill-opacity:1;stroke:none" d="M256 16A240 240 0 0 0 16 256a240 240 0 0 0 240 240 240 240 0 0 0 240-240A240 240 0 0 0 256 16z"/><path d="m255.985-337.36 4.3 13.187h13.879l-11.225 8.166 4.27 13.186-11.224-8.137-11.224 8.137 4.27-13.186-11.224-8.166h13.908l4.27-13.187M191.179-320.105l4.299 13.216 13.879-.023-11.224 8.165 4.299 13.216-11.224-8.137-11.254 8.166 4.3-13.216L173-306.884h13.907l4.27-13.215M143.771-272.755l4.3 13.187h13.907l-11.253 8.166 4.328 13.215-11.253-8.166-11.224 8.195 4.27-13.216-11.224-8.165H139.5l4.27-13.215M320.648-319.903l4.328 13.216 13.88-.023-11.196 8.194 4.299 13.216-11.253-8.166-11.225 8.166 4.3-13.187-11.282-8.166 13.908-.023 4.241-13.215M384.3-260.55l-11.224 8.166 4.3 13.216-11.225-8.166-11.253 8.166 4.3-13.216-11.254-8.136h13.88l4.299-13.245 4.27 13.216h13.908M402.19-195.54l-11.282 8.108 4.242 13.215-11.195-8.195-11.282 8.108L377-187.49l-11.196-8.195 13.88.046 4.356-13.186 4.242 13.215 13.908.047M378.443-111.805l-11.224-8.137-11.253 8.166 4.3-13.216-11.254-8.137 13.879-.023 4.299-13.215 4.3 13.215 13.907-.023-11.253 8.166 4.3 13.215M245.915-46.652l4.242-13.215-11.224-8.137 13.879-.023 4.27-13.216 4.328 13.187 13.85-.023-11.195 8.194 4.328 13.187-11.253-8.108-11.225 8.166M181.022-63.82l4.27-13.187-11.253-8.166h13.908l4.27-13.244 4.3 13.216 13.879-.024-11.225 8.166 4.328 13.215-11.253-8.136-11.224 8.166M331.064-64.109l-11.224-8.223-11.282 8.136 4.357-13.215-11.195-8.194 13.879.046 4.328-13.187 4.241 13.216 13.908.023-11.282 8.135 4.27 13.245M109.81-195.28l13.878-.024 4.27-13.244 4.329 13.187 13.879-.023-11.196 8.223 4.328 13.186-11.253-8.136-11.253 8.194 4.27-13.215-11.252-8.149M133.585-111.863l4.27-13.215-11.252-8.137 13.908-.023 4.299-13.215 4.3 13.215h13.878l-11.224 8.166 4.299 13.186-11.253-8.137-11.225 8.166" style="fill:#f1c40f;fill-opacity:1;fill-rule:nonzero;stroke:none" transform="translate(0 448)"/></svg>